HIERARCHY
ROOT Hips
{
	OFFSET 0.000000 89.005402 0.000000
	CHANNELS 6 Xposition Yposition Zposition Xrotation Yrotation Zrotation
	JOINT Spine
	{
		OFFSET 0.116900 10.681000 0.373400
		CHANNELS 3 Xrotation Yrotation Zrotation
		JOINT Spine1
		{
			OFFSET 0.000000 13.840401 0.053500
			CHANNELS 3 Xrotation Yrotation Zrotation
			JOINT Spine2
			{
				OFFSET 0.000000 14.712700 -0.366200
				CHANNELS 3 Xrotation Yrotation Zrotation
				JOINT Neck
				{
					OFFSET 0.000000 35.415497 -3.314200
					CHANNELS 3 Xrotation Yrotation Zrotation
					JOINT Head
					{
						OFFSET 0.000000 16.899200 1.218300
						CHANNELS 3 Xrotation Yrotation Zrotation
						JOINT HeadTop_End
						{
							OFFSET 0.000000 22.206207 2.192500
							CHANNELS 3 Xrotation Yrotation Zrotation
							End Site
							{
								OFFSET 0.000000 22.314178 0.000000
							}
						}
					}
				}
				JOINT LeftShoulder
				{
					OFFSET 12.896400 26.716293 -4.548400
					CHANNELS 3 Xrotation Yrotation Zrotation
					JOINT LeftArm
					{
						OFFSET 19.027000 -4.857010 -1.718400
						CHANNELS 3 Xrotation Yrotation Zrotation
						JOINT LeftForeArm
						{
							OFFSET 24.179897 0.000000 0.000000
							CHANNELS 3 Xrotation Yrotation Zrotation
							JOINT LeftHand
							{
								OFFSET 27.156403 0.000000 0.000000
								CHANNELS 3 Xrotation Yrotation Zrotation
								JOINT LeftHandIndex1
								{
									OFFSET 16.441200 0.000000 0.000000
									CHANNELS 3 Xrotation Yrotation Zrotation
									JOINT LeftHandIndex2
									{
										OFFSET 4.821899 0.000000 0.000000
										CHANNELS 3 Xrotation Yrotation Zrotation
										JOINT LeftHandIndex3
										{
											OFFSET 6.386497 0.000000 0.000000
											CHANNELS 3 Xrotation Yrotation Zrotation
											JOINT LeftHandIndex4
											{
												OFFSET 5.188988 0.000000 0.000000
												CHANNELS 3 Xrotation Yrotation Zrotation
												End Site
												{
													OFFSET -0.178703 5.185913 0.000177
												}
											}
										}
									}
								}
								JOINT LeftHandThumb1
								{
									OFFSET 6.534897 -5.032593 5.900300
									CHANNELS 3 Xrotation Yrotation Zrotation
									JOINT LeftHandThumb2
									{
										OFFSET 3.818176 -2.204422 2.204423
										CHANNELS 3 Xrotation Yrotation Zrotation
										JOINT LeftHandThumb3
										{
											OFFSET 3.252098 -1.877594 1.877601
											CHANNELS 3 Xrotation Yrotation Zrotation
											JOINT LeftHandThumb4
											{
												OFFSET 5.251778 -3.032120 3.032117
												CHANNELS 3 Xrotation Yrotation Zrotation
												End Site
												{
													OFFSET 0.000023 6.780014 0.000000
												}
											}
										}
									}
								}
							}
						}
					}
				}
				JOINT RightShoulder
				{
					OFFSET -12.896300 26.716293 -4.548400
					CHANNELS 3 Xrotation Yrotation Zrotation
					JOINT RightArm
					{
						OFFSET -19.027000 -4.857010 -1.718400
						CHANNELS 3 Xrotation Yrotation Zrotation
						JOINT RightForeArm
						{
							OFFSET -24.179897 0.000000 0.000000
							CHANNELS 3 Xrotation Yrotation Zrotation
							JOINT RightHand
							{
								OFFSET -27.156403 0.000000 0.000000
								CHANNELS 3 Xrotation Yrotation Zrotation
								JOINT RightHandThumb1
								{
									OFFSET -6.591202 -4.852203 5.988100
									CHANNELS 3 Xrotation Yrotation Zrotation
									JOINT RightHandThumb2
									{
										OFFSET -3.818176 -2.204422 2.204423
										CHANNELS 3 Xrotation Yrotation Zrotation
										JOINT RightHandThumb3
										{
											OFFSET -3.252098 -1.877594 1.877601
											CHANNELS 3 Xrotation Yrotation Zrotation
											JOINT RightHandThumb4
											{
												OFFSET -5.251778 -3.032120 3.032117
												CHANNELS 3 Xrotation Yrotation Zrotation
												End Site
												{
													OFFSET -0.000023 6.780014 0.000000
												}
											}
										}
									}
								}
								JOINT RightHandIndex1
								{
									OFFSET -16.029404 0.000000 0.000000
									CHANNELS 3 Xrotation Yrotation Zrotation
									JOINT RightHandIndex2
									{
										OFFSET -5.213303 0.000000 0.000000
										CHANNELS 3 Xrotation Yrotation Zrotation
										JOINT RightHandIndex3
										{
											OFFSET -6.386528 0.000000 0.000000
											CHANNELS 3 Xrotation Yrotation Zrotation
											JOINT RightHandIndex4
											{
												OFFSET -5.189026 0.000000 0.000000
												CHANNELS 3 Xrotation Yrotation Zrotation
												End Site
												{
													OFFSET 0.236702 5.183624 0.001972
												}
											}
										}
									}
								}
							}
						}
					}
				}
			}
		}
	}
	JOINT LeftUpLeg
	{
		OFFSET 14.073000 -7.904099 -1.463000
		CHANNELS 3 Xrotation Yrotation Zrotation
		JOINT LeftLeg
		{
			OFFSET -0.109806 -34.073280 4.093200
			CHANNELS 3 Xrotation Yrotation Zrotation
			JOINT LeftFoot
			{
				OFFSET 0.109806 -29.899420 -6.319000
				CHANNELS 3 Xrotation Yrotation Zrotation
				JOINT LeftToeBase
				{
					OFFSET 1.551100 -14.988700 20.535801
					CHANNELS 3 Xrotation Yrotation Zrotation
					JOINT LeftToe_End
					{
						OFFSET 0.221200 0.570800 13.248301
						CHANNELS 3 Xrotation Yrotation Zrotation
						End Site
						{
							OFFSET 0.000000 13.262435 0.000000
						}
					}
				}
			}
		}
	}
	JOINT RightUpLeg
	{
		OFFSET -13.839300 -7.904099 -1.463000
		CHANNELS 3 Xrotation Yrotation Zrotation
		JOINT RightLeg
		{
			OFFSET 0.109694 -34.073219 4.093300
			CHANNELS 3 Xrotation Yrotation Zrotation
			JOINT RightFoot
			{
				OFFSET -0.109694 -29.899384 -6.319200
				CHANNELS 3 Xrotation Yrotation Zrotation
				JOINT RightToeBase
				{
					OFFSET -1.551100 -14.988700 20.535801
					CHANNELS 3 Xrotation Yrotation Zrotation
					JOINT RightToe_End
					{
						OFFSET -0.221200 0.570900 13.248299
						CHANNELS 3 Xrotation Yrotation Zrotation
						End Site
						{
							OFFSET 0.000000 13.262440 0.000000
						}
					}
				}
			}
		}
	}
}
MOTION
Frames: 8
Frame Time: 0.033333
-100.028442 59.334564 4.312788 17.817510 -15.007831 10.283879 6.459937 3.729559 1.715051 12.929324 6.256387 2.221609 12.929325 6.256384 2.221613 -16.987323 -16.399868 3.618160 -24.121846 -39.869542 -5.140706 0.000000 -0.000000 0.000000 0.817598 1.103344 -15.245906 -8.915183 10.105392 -33.412753 29.716285 -41.717815 -1.876990 27.591027 -5.333859 -16.686910 -0.739662 -7.008647 -18.081883 -1.745818 -1.218645 -37.694827 -0.000003 0.000007 0.000000 0.000002 0.000001 0.000001 11.921013 -9.819348 0.615947 6.631551 17.273719 5.453413 0.000007 -0.000001 0.000004 0.000001 -0.000001 -0.000001 1.850267 8.797351 16.594334 -16.962252 0.087549 7.503936 19.996630 29.568630 -2.314533 11.079024 13.299724 6.302597 1.093052 12.032768 -18.355864 10.430809 -13.056643 -1.603774 0.000001 0.000009 -0.000008 -0.000000 0.000002 -0.000000 -0.395323 5.974574 6.733521 -1.043583 -0.119396 30.529562 -0.000003 -0.000000 0.000003 0.000002 -0.000001 0.000002 -92.451337 -10.566056 8.104587 83.262479 19.191559 -1.022832 4.909969 -0.049883 9.324633 0.864608 5.070323 -21.886197 -0.000001 -0.000000 0.000000 -67.625717 -2.096010 -17.165485 98.258487 4.316684 3.832959 -48.510343 -0.370242 -1.592908 -0.038349 0.818821 -0.001023 0.000000 0.000001 0.000000 
-103.364571 59.873718 4.002230 17.366432 -14.662244 10.353564 6.547073 3.688733 1.619819 13.086480 6.336535 2.282252 13.086480 6.336535 2.282248 -17.134329 -16.692670 4.132961 -24.132759 -40.017542 -4.943058 -0.000000 0.000001 -0.000000 0.806426 1.455191 -14.870041 -8.947114 9.602617 -34.370079 29.508104 -41.904303 -2.292188 27.075526 -5.414206 -16.472116 -0.851309 -6.819349 -17.281603 -1.621636 -1.067241 -36.073050 0.000002 0.000006 -0.000000 0.000001 0.000001 -0.000002 11.435607 -9.522435 0.982133 6.542494 16.066458 5.112668 0.000008 0.000000 0.000003 -0.000000 -0.000001 0.000001 1.846107 8.864712 16.736221 -17.041645 0.095413 6.418902 20.256920 28.941472 -2.169460 11.322264 13.196174 6.034948 1.058686 11.596889 -18.427342 10.103614 -12.190920 -1.612426 0.000001 0.000008 -0.000005 0.000002 0.000000 0.000000 -0.297801 5.952889 5.480014 -1.002095 -0.190846 29.706224 -0.000005 0.000000 0.000002 -0.000003 0.000000 -0.000002 -93.247450 -5.283207 6.478595 79.987451 18.478855 -4.379747 7.150765 -0.056294 6.380082 0.009831 4.819030 -21.753343 -0.000000 -0.000001 0.000000 -64.927881 -4.827442 -13.689388 97.573733 0.678861 4.216031 -50.782392 0.749982 -3.033883 -0.036948 1.127496 -0.000771 0.000000 0.000001 0.000000 
-106.541489 60.283371 3.825100 16.940872 -14.754266 10.370192 6.658095 3.781380 1.393308 13.290576 6.664176 2.162046 13.290565 6.664177 2.162043 -17.291321 -17.004888 4.622933 -24.311230 -40.136831 -4.971017 0.000000 -0.000001 0.000001 0.822128 1.654491 -14.999644 -9.020919 9.400366 -34.157807 29.640381 -42.651444 -2.145276 26.791933 -5.612448 -15.979842 -0.872909 -6.702579 -16.471201 -1.545386 -0.960756 -34.992869 0.000002 0.000007 -0.000002 0.000001 -0.000002 0.000003 11.509755 -9.473180 0.909616 6.219061 15.065702 5.105845 0.000008 0.000005 0.000004 -0.000000 0.000000 -0.000000 1.797942 9.093154 16.641749 -17.038604 -0.390876 5.754432 20.558139 28.473274 -2.067354 11.781406 13.394420 6.113807 0.754704 11.327643 -18.646548 9.916093 -11.684227 -1.479037 0.000000 0.000010 -0.000006 0.000002 0.000000 0.000000 -0.232294 5.914164 4.584517 -0.971973 -0.244324 29.093235 -0.000009 -0.000001 0.000004 -0.000002 -0.000001 -0.000000 -93.984926 0.265959 4.743378 77.998083 17.544137 -7.786524 6.481730 -0.092893 2.281936 -1.432196 4.744614 -14.739630 -0.000000 0.000001 -0.000000 -62.045507 -7.623384 -10.381520 96.455194 -2.210505 4.679600 -52.707200 2.073087 -4.748471 -0.019732 1.603072 -0.000105 -0.000000 -0.000002 -0.000000 
-109.567551 60.565399 3.887945 16.973075 -15.158012 10.256990 6.651557 3.989397 1.163564 13.258693 7.116331 2.025427 13.258676 7.116325 2.025412 -17.254709 -17.176104 4.938099 -24.630219 -40.083440 -5.261516 -0.000001 0.000001 -0.000000 0.837928 1.721464 -15.195552 -9.008249 9.639984 -33.440589 29.729853 -43.450610 -1.767154 26.638086 -5.442932 -15.734526 -0.784618 -6.760564 -15.803321 -1.515590 -0.918136 -34.561802 -0.000000 0.000007 -0.000000 -0.000001 -0.000004 0.000005 11.941947 -9.486896 0.571295 5.685814 14.249679 5.469048 0.000007 0.000004 0.000003 -0.000000 0.000000 -0.000000 1.740003 9.309100 16.323418 -16.976976 -0.995081 5.531377 20.822100 28.457042 -2.030708 12.169204 13.601711 6.609262 0.461438 11.375270 -18.843654 9.805401 -11.571383 -1.360253 0.000000 0.000009 -0.000003 0.000000 0.000001 -0.000002 -0.228970 5.932734 4.378252 -0.964073 -0.259803 28.926223 -0.000005 0.000001 0.000000 -0.000001 -0.000000 -0.000002 -94.017267 5.184815 2.866053 74.528832 16.747943 -11.133514 7.948089 0.020785 -3.134837 -1.891461 4.539622 -2.130821 -0.000000 0.000000 -0.000001 -59.124850 -10.404868 -7.044122 94.841316 -4.370804 5.325841 -54.390337 3.563098 -6.679938 -0.077778 2.039544 -0.000739 0.000000 -0.000001 -0.000000 
-109.567551 60.565399 3.887945 16.973075 -15.158012 10.256990 6.651557 3.989397 1.163564 13.258693 7.116331 2.025427 13.258676 7.116325 2.025412 -17.254709 -17.176104 4.938099 -24.630219 -40.083440 -5.261516 -0.000001 0.000001 -0.000000 0.837928 1.721464 -15.195552 -9.008249 9.639984 -33.440589 29.729853 -43.450610 -1.767154 26.638086 -5.442932 -15.734526 -0.784618 -6.760564 -15.803321 -1.515590 -0.918136 -34.561802 -0.000000 0.000007 -0.000000 -0.000001 -0.000004 0.000005 11.941947 -9.486896 0.571295 5.685814 14.249679 5.469048 0.000007 0.000004 0.000003 -0.000000 0.000000 -0.000000 1.740003 9.309100 16.323418 -16.976976 -0.995081 5.531377 20.822100 28.457042 -2.030708 12.169204 13.601711 6.609262 0.461438 11.375270 -18.843654 9.805401 -11.571383 -1.360253 0.000000 0.000009 -0.000003 0.000000 0.000001 -0.000002 -0.228970 5.932734 4.378252 -0.964073 -0.259803 28.926223 -0.000005 0.000001 0.000000 -0.000001 -0.000000 -0.000002 -94.017267 5.184815 2.866053 74.528832 16.747943 -11.133514 7.948089 0.020785 -3.134837 -1.891461 4.539622 -2.130821 -0.000000 0.000000 -0.000001 -59.124850 -10.404868 -7.044122 94.841316 -4.370804 5.325841 -54.390337 3.563098 -6.679938 -0.077778 2.039544 -0.000739 0.000000 -0.000001 -0.000000 
-109.567551 60.565399 3.887945 16.973075 -15.158012 10.256990 6.651557 3.989397 1.163564 13.258693 7.116331 2.025427 13.258676 7.116325 2.025412 -17.254709 -17.176104 4.938099 -24.630219 -40.083440 -5.261516 -0.000001 0.000001 -0.000000 0.837928 1.721464 -15.195552 -9.008249 9.639984 -33.440589 29.729853 -43.450610 -1.767154 26.638086 -5.442932 -15.734526 -0.784618 -6.760564 -15.803321 -1.515590 -0.918136 -34.561802 -0.000000 0.000007 -0.000000 -0.000001 -0.000004 0.000005 11.941947 -9.486896 0.571295 5.685814 14.249679 5.469048 0.000007 0.000004 0.000003 -0.000000 0.000000 -0.000000 1.740003 9.309100 16.323418 -16.976976 -0.995081 5.531377 20.822100 28.457042 -2.030708 12.169204 13.601711 6.609262 0.461438 11.375270 -18.843654 9.805401 -11.571383 -1.360253 0.000000 0.000009 -0.000003 0.000000 0.000001 -0.000002 -0.228970 5.932734 4.378252 -0.964073 -0.259803 28.926223 -0.000005 0.000001 0.000000 -0.000001 -0.000000 -0.000002 -94.017267 5.184815 2.866053 74.528832 16.747943 -11.133514 7.948089 0.020785 -3.134837 -1.891461 4.539622 -2.130821 -0.000000 0.000000 -0.000001 -59.124850 -10.404868 -7.044122 94.841316 -4.370804 5.325841 -54.390337 3.563098 -6.679938 -0.077778 2.039544 -0.000739 0.000000 -0.000001 -0.000000 
-109.567551 60.565399 3.887945 16.973075 -15.158012 10.256990 6.651557 3.989397 1.163564 13.258693 7.116331 2.025427 13.258676 7.116325 2.025412 -17.254709 -17.176104 4.938099 -24.630219 -40.083440 -5.261516 -0.000001 0.000001 -0.000000 0.837928 1.721464 -15.195552 -9.008249 9.639984 -33.440589 29.729853 -43.450610 -1.767154 26.638086 -5.442932 -15.734526 -0.784618 -6.760564 -15.803321 -1.515590 -0.918136 -34.561802 -0.000000 0.000007 -0.000000 -0.000001 -0.000004 0.000005 11.941947 -9.486896 0.571295 5.685814 14.249679 5.469048 0.000007 0.000004 0.000003 -0.000000 0.000000 -0.000000 1.740003 9.309100 16.323418 -16.976976 -0.995081 5.531377 20.822100 28.457042 -2.030708 12.169204 13.601711 6.609262 0.461438 11.375270 -18.843654 9.805401 -11.571383 -1.360253 0.000000 0.000009 -0.000003 0.000000 0.000001 -0.000002 -0.228970 5.932734 4.378252 -0.964073 -0.259803 28.926223 -0.000005 0.000001 0.000000 -0.000001 -0.000000 -0.000002 -94.017267 5.184815 2.866053 74.528832 16.747943 -11.133514 7.948089 0.020785 -3.134837 -1.891461 4.539622 -2.130821 -0.000000 0.000000 -0.000001 -59.124850 -10.404868 -7.044122 94.841316 -4.370804 5.325841 -54.390337 3.563098 -6.679938 -0.077778 2.039544 -0.000739 0.000000 -0.000001 -0.000000 
-109.567551 60.565399 3.887945 16.973075 -15.158012 10.256990 6.651557 3.989397 1.163564 13.258693 7.116331 2.025427 13.258676 7.116325 2.025412 -17.254709 -17.176104 4.938099 -24.630219 -40.083440 -5.261516 -0.000001 0.000001 -0.000000 0.837928 1.721464 -15.195552 -9.008249 9.639984 -33.440589 29.729853 -43.450610 -1.767154 26.638086 -5.442932 -15.734526 -0.784618 -6.760564 -15.803321 -1.515590 -0.918136 -34.561802 -0.000000 0.000007 -0.000000 -0.000001 -0.000004 0.000005 11.941947 -9.486896 0.571295 5.685814 14.249679 5.469048 0.000007 0.000004 0.000003 -0.000000 0.000000 -0.000000 1.740003 9.309100 16.323418 -16.976976 -0.995081 5.531377 20.822100 28.457042 -2.030708 12.169204 13.601711 6.609262 0.461438 11.375270 -18.843654 9.805401 -11.571383 -1.360253 0.000000 0.000009 -0.000003 0.000000 0.000001 -0.000002 -0.228970 5.932734 4.378252 -0.964073 -0.259803 28.926223 -0.000005 0.000001 0.000000 -0.000001 -0.000000 -0.000002 -94.017267 5.184815 2.866053 74.528832 16.747943 -11.133514 7.948089 0.020785 -3.134837 -1.891461 4.539622 -2.130821 -0.000000 0.000000 -0.000001 -59.124850 -10.404868 -7.044122 94.841316 -4.370804 5.325841 -54.390337 3.563098 -6.679938 -0.077778 2.039544 -0.000739 0.000000 -0.000001 -0.000000 
